<svg width="817" height="729" viewBox="0 0 817 729" fill="none" xmlns="http://www.w3.org/2000/svg">
<rect x="2.4519" width="814.513" height="265.18" fill="url(#paint0_linear_17_135)"/>
<path fill-rule="evenodd" clip-rule="evenodd" d="M2 266.348H446.826L200.004 66.2251L2 226.768V266.348Z" fill="url(#paint1_linear_17_135)"/>
<path d="M380.007 34.4012L626.828 234.524H133.186L380.007 34.4012Z" fill="url(#paint2_linear_17_135)"/>
<path fill-rule="evenodd" clip-rule="evenodd" d="M817 203.793L630.726 52.7611L383.905 252.884H817V203.793Z" fill="url(#paint3_linear_17_135)"/>
<mask id="mask0_17_135" style="mask-type:alpha" maskUnits="userSpaceOnUse" x="2" y="34" width="815" height="233">
<path d="M380.007 34.4012L626.828 234.524H133.186L380.007 34.4012Z" fill="white"/>
<path fill-rule="evenodd" clip-rule="evenodd" d="M817 203.793L630.726 52.7611L383.905 252.884H817V203.793Z" fill="white"/>
<path fill-rule="evenodd" clip-rule="evenodd" d="M2 266.348H446.826L200.004 66.2251L2 226.768V266.348Z" fill="white"/>
</mask>
<g mask="url(#mask0_17_135)">
<path d="M563.225 102.703L751.588 42.4367H374.861L563.225 102.703Z" fill="white"/>
<path d="M716.441 110.739L885.319 50.4723H547.564L716.441 110.739Z" fill="white"/>
<path d="M654.297 102.703L823.175 42.4367H485.42L654.297 102.703Z" fill="white"/>
<path d="M361.793 97.3463L501.905 37.0797H221.68L361.793 97.3463Z" fill="white"/>
<path d="M284.648 106.721L454.454 46.4545H114.843L284.648 106.721Z" fill="white"/>
<path d="M471.081 106.721L605.626 46.4545H336.535L471.081 106.721Z" fill="white"/>
<path d="M266.818 96.0071L434.767 35.7404H98.8679L266.818 96.0071Z" fill="white"/>
<path d="M209.648 106.721L379.453 46.4545H39.8422L209.648 106.721Z" fill="white"/>
<path d="M137.517 113.417L312.89 53.1508H-37.8562L137.517 113.417Z" fill="white"/>
<rect x="4.31323" y="-102.203" width="578.581" height="172.764" fill="white"/>
<rect x="582.894" y="-80.7751" width="334.291" height="168.747" fill="white"/>
</g>
<path fill-rule="evenodd" clip-rule="evenodd" d="M2 333H817V248.455V246.863V245.704V180.435L808.923 213.649L796.813 163.854L784.035 216.4L771.925 166.606L761.537 209.323L753.825 177.611L738.115 242.211L724.412 185.864L715.864 221.016L706.312 181.738L699.898 208.11L690.474 169.357L679.663 213.812L667.849 165.23L655.238 217.088L642.961 166.606L630.055 219.677L615.81 161.103L601.566 219.676L588.66 166.606L574.878 223.278L563.772 177.611L548.524 240.311L536.621 191.367L524.177 242.537L511.734 191.367L498.934 244H498.897L489.108 203.748L479.319 244H477.944L466.483 196.869L455.021 244H454.65L443.858 199.621L433.883 240.637L421.232 188.616L407.763 244H406.961L391.819 181.738L380.005 230.32L369.194 185.864L358.383 230.319L346.568 181.738L340.283 207.585L332.993 177.611L317.785 240.148L303.58 181.738L291.264 232.383L280.955 189.991L273.402 221.049L262.855 177.677L255.563 207.66L249.279 181.82L240.609 217.472L228.917 169.39L217.94 214.525L204.949 161.103L191.501 216.4L180.061 169.357L169.201 214.014L159.698 174.939L145.798 232.097L132.548 177.611L121.107 224.654L107.66 169.357L92.7067 230.844L82.7718 189.991L69.6375 244H67.6727L57.8838 203.748L48.7457 241.324L35.2586 185.864L24.3617 230.673L9.45032 169.357L2 199.993V253.958V333Z" fill="url(#paint4_linear_17_135)"/>
<rect x="19.6853" y="348.894" width="83.1843" height="63.351" fill="#1F2544"/>
<path d="M61.2777 301.381L114.182 356.813H8.37352L61.2777 301.381Z" fill="#1F2544"/>
<rect x="189.492" y="337.581" width="135.922" height="63.351" fill="#1F2544"/>
<path d="M280.744 303.643L378.715 359.641H182.773L280.744 303.643Z" fill="#1F2544"/>
<rect x="80.8867" y="380.569" width="112.624" height="63.351" fill="#1F2544"/>
<path d="M137.199 333.056L208.826 388.488H65.571L137.199 333.056Z" fill="#1F2544"/>
<rect x="299.879" y="291.576" width="81.6439" height="63.351" fill="#1F2544"/>
<path d="M340.701 244.817L392.626 300.249H288.777L340.701 244.817Z" fill="#1F2544"/>
<rect x="395.379" y="285.543" width="60.3343" height="52.0383" fill="#1F2544"/>
<path d="M425.546 231.242L464.734 287.24H386.358L425.546 231.242Z" fill="#1F2544"/>
<rect x="451.734" y="292.977" width="92.427" height="58.1795" fill="#1F2544"/>
<path d="M497.947 258.392L556.73 297.421H439.165L497.947 258.392Z" fill="#1F2544"/>
<rect x="568.086" y="269.705" width="38.4631" height="81.4513" fill="#1F2544"/>
<path d="M587.318 210.879L613.77 273.664H560.866L587.318 210.879Z" fill="#1F2544"/>
<rect x="590.711" y="305.906" width="79.1888" height="47.5133" fill="#1F2544"/>
<rect x="606.549" y="283.28" width="36.2006" height="24.8879" fill="#1F2544"/>
<path d="M642.75 283.28L676.06 307.037H609.44L642.75 283.28Z" fill="#1F2544"/>
<rect x="680.443" y="278.755" width="73.9416" height="63.351" fill="#1F2544"/>
<path d="M717.413 231.242L764.439 286.674H670.387L717.413 231.242Z" fill="#1F2544"/>
<rect x="2" y="369" width="310" height="122" fill="#1F2544"/>
<rect x="312" y="331" width="505" height="160" fill="#1F2544"/>
<rect x="87.8796" y="269.49" width="193.413" height="122.392" fill="#1F2544"/>
<rect x="87.8796" y="247.08" width="32.7554" height="22.4099" fill="#1F2544"/>
<rect x="184.586" y="247.08" width="32.7554" height="22.4099" fill="#1F2544"/>
<rect x="248.537" y="247.08" width="32.7554" height="22.4099" fill="#1F2544"/>
<path d="M104.257 210.879L123.844 248.373H84.6707L104.257 210.879Z" fill="#1F2544"/>
<path d="M200.964 210.879L220.55 248.373H181.377L200.964 210.879Z" fill="#1F2544"/>
<path d="M264.915 210.879L284.501 248.373H245.328L264.915 210.879Z" fill="#1F2544"/>
<path fill-rule="evenodd" clip-rule="evenodd" d="M817 244.906L760.159 300.249H772.332V355.681H817V244.906Z" fill="#1F2544"/>
<path fill-rule="evenodd" clip-rule="evenodd" d="M2 380.569H44.2121V293.462H54.7607L12.6333 262.917L2 270.627V380.569Z" fill="#1F2544"/>
<rect x="393.871" y="314.956" width="45.2507" height="414.044" fill="url(#paint5_linear_17_135)"/>
<g filter="url(#filter0_d_17_135)">
<rect x="111.053" y="344.369" width="610.885" height="271.504" rx="20" fill="#474F7A"/>
</g>
<rect x="122.366" y="355.681" width="588.26" height="248.879" rx="15" fill="white"/>
<ellipse cx="416.496" cy="316.087" rx="22.6254" ry="5.65634" fill="#5C6699"/>
<defs>
<filter id="filter0_d_17_135" x="107.053" y="344.369" width="618.885" height="279.504" filterUnits="userSpaceOnUse" color-interpolation-filters="sRGB">
<feFlood flood-opacity="0" result="BackgroundImageFix"/>
<feColorMatrix in="SourceAlpha" type="matrix" values="0 0 0 0 0 0 0 0 0 0 0 0 0 0 0 0 0 0 127 0" result="hardAlpha"/>
<feOffset dy="4"/>
<feGaussianBlur stdDeviation="2"/>
<feComposite in2="hardAlpha" operator="out"/>
<feColorMatrix type="matrix" values="0 0 0 0 0 0 0 0 0 0 0 0 0 0 0 0 0 0 0.25 0"/>
<feBlend mode="normal" in2="BackgroundImageFix" result="effect1_dropShadow_17_135"/>
<feBlend mode="normal" in="SourceGraphic" in2="effect1_dropShadow_17_135" result="shape"/>
</filter>
<linearGradient id="paint0_linear_17_135" x1="409.709" y1="0" x2="409.709" y2="265.18" gradientUnits="userSpaceOnUse">
<stop stop-color="#81689D"/>
<stop offset="1" stop-color="#BBA9CF"/>
</linearGradient>
<linearGradient id="paint1_linear_17_135" x1="200.004" y1="66.2251" x2="200.004" y2="333.056" gradientUnits="userSpaceOnUse">
<stop offset="0.325" stop-color="#1F2544"/>
<stop offset="0.465" stop-color="#121836"/>
</linearGradient>
<linearGradient id="paint2_linear_17_135" x1="380.007" y1="34.4012" x2="380.007" y2="301.232" gradientUnits="userSpaceOnUse">
<stop offset="0.325" stop-color="#1F2544"/>
<stop offset="0.465" stop-color="#121836"/>
</linearGradient>
<linearGradient id="paint3_linear_17_135" x1="630.726" y1="52.7611" x2="630.726" y2="319.592" gradientUnits="userSpaceOnUse">
<stop offset="0.325" stop-color="#1F2544"/>
<stop offset="0.465" stop-color="#121836"/>
</linearGradient>
<linearGradient id="paint4_linear_17_135" x1="415.576" y1="161.103" x2="415.576" y2="333.056" gradientUnits="userSpaceOnUse">
<stop offset="0.425" stop-color="#474F7A"/>
<stop offset="0.71" stop-color="#373F69"/>
</linearGradient>
<linearGradient id="paint5_linear_17_135" x1="416.496" y1="314.956" x2="416.496" y2="729" gradientUnits="userSpaceOnUse">
<stop offset="0.75" stop-color="#474F7A"/>
<stop offset="1" stop-color="#1F2544"/>
</linearGradient>
</defs>
</svg>
